<svg viewBox="0 0 1200 675" xmlns="http://www.w3.org/2000/svg" font-family="Inter, Arial, Helvetica, sans-serif"><defs><linearGradient id="bg" x1="0" y1="0" x2="1" y2="1"><stop offset="0" stop-color="#1E3A5F"/><stop offset="1" stop-color="#142A45"/></linearGradient><linearGradient id="orange" x1="0" y1="0" x2="1" y2="1"><stop offset="0" stop-color="#FF8355"/><stop offset="1" stop-color="#FF6B35"/></linearGradient><filter id="soft" x="-20%" y="-20%" width="140%" height="140%"><feDropShadow dx="0" dy="8" stdDeviation="16" flood-color="#000000" flood-opacity="0.18"/></filter></defs><rect width="1200" height="675" fill="url(#bg)"/><g opacity="0.06"><circle cx="140" cy="600" r="120" fill="none" stroke="#FFFFFF" stroke-width="14"/><line x1="206" y1="666" x2="266" y2="726" stroke="#FFFFFF" stroke-width="14" stroke-linecap="round"/></g><text x="90" y="150" fill="#FF6B35" font-size="24" font-weight="700" letter-spacing="3">PRODUCT-UPDATE</text><text x="90" y="210" fill="#FFFFFF" font-size="56" font-weight="700">Je abonnement,</text><text x="90" y="276" fill="#FFFFFF" font-size="56" font-weight="700">volledig in</text><text x="90" y="342" fill="#FFFFFF" font-size="56" font-weight="700">eigen hand</text><rect x="90" y="410" width="150" height="6" rx="3" fill="#FF6B35"/><text x="90" y="452" fill="#B9C6D6" font-size="22">Kies je plan en betaalwijze zelf</text><g filter="url(#soft)" transform="translate(700,160)"><rect x="0" y="40" width="130" height="300" rx="22" fill="#FFFFFF"/><text x="24" y="86" fill="#1E3A5F" font-size="18" font-weight="700">Starter</text><rect x="24" y="104" width="60" height="20" rx="10" fill="#1E3A5F" opacity="0.12"/><g transform="translate(24,150)"><circle cx="8" cy="8" r="7" fill="#1E3A5F" opacity="0.3"/><rect x="26" y="3" width="70" height="9" rx="4.5" fill="#7C8DA3" opacity="0.5"/></g><g transform="translate(24,186)"><circle cx="8" cy="8" r="7" fill="#1E3A5F" opacity="0.3"/><rect x="26" y="3" width="56" height="9" rx="4.5" fill="#7C8DA3" opacity="0.5"/></g></g><g filter="url(#soft)" transform="translate(850,140)"><rect x="0" y="0" width="150" height="360" rx="24" fill="#FFFFFF"/><rect x="0" y="0" width="150" height="360" rx="24" fill="none" stroke="#FF6B35" stroke-width="3"/><rect x="40" y="-14" width="70" height="28" rx="14" fill="url(#orange)"/><text x="75" y="4" fill="#FFFFFF" font-size="13" font-weight="700" text-anchor="middle">GEKOZEN</text><text x="28" y="66" fill="#1E3A5F" font-size="22" font-weight="700">Pro</text><text x="28" y="104" fill="#FF6B35" font-size="30" font-weight="700">&#8364;89</text><text x="112" y="104" fill="#7C8DA3" font-size="14">/mnd</text><g transform="translate(28,140)"><circle cx="9" cy="9" r="9" fill="url(#orange)"/><path d="M4 9 l4 4 l7 -8" stroke="#FFFFFF" stroke-width="2.5" fill="none" stroke-linecap="round" stroke-linejoin="round"/><rect x="30" y="4" width="80" height="9" rx="4.5" fill="#1E3A5F" opacity="0.5"/></g><g transform="translate(28,178)"><circle cx="9" cy="9" r="9" fill="url(#orange)"/><path d="M4 9 l4 4 l7 -8" stroke="#FFFFFF" stroke-width="2.5" fill="none" stroke-linecap="round" stroke-linejoin="round"/><rect x="30" y="4" width="64" height="9" rx="4.5" fill="#1E3A5F" opacity="0.5"/></g><g transform="translate(28,216)"><circle cx="9" cy="9" r="9" fill="url(#orange)"/><path d="M4 9 l4 4 l7 -8" stroke="#FFFFFF" stroke-width="2.5" fill="none" stroke-linecap="round" stroke-linejoin="round"/><rect x="30" y="4" width="72" height="9" rx="4.5" fill="#1E3A5F" opacity="0.5"/></g><g transform="translate(28,278)"><rect x="0" y="0" width="58" height="30" rx="15" fill="url(#orange)"/><circle cx="43" cy="15" r="11" fill="#FFFFFF"/></g><text x="28" y="336" fill="#7C8DA3" font-size="13">Incasso aan</text></g></svg>
